<svg width="79" height="25" viewBox="0 0 79 25" fill="none" xmlns="http://www.w3.org/2000/svg">
<path d="M5.22949 6.15039C6.28418 6.15039 7.1543 6.28223 7.83984 6.5459C8.53125 6.80371 9.04688 7.19922 9.38672 7.73242C9.72656 8.26562 9.89648 8.94531 9.89648 9.77148C9.89648 10.4512 9.77344 11.0195 9.52734 11.4766C9.28125 11.9277 8.95898 12.2939 8.56055 12.5752C8.16211 12.8564 7.7373 13.0732 7.28613 13.2256L10.8105 19H9.07031L5.92383 13.6387H3.25195V19H1.75781V6.15039H5.22949ZM5.1416 7.44238H3.25195V12.373H5.29102C6.33984 12.373 7.11035 12.1592 7.60254 11.7314C8.10059 11.3037 8.34961 10.6738 8.34961 9.8418C8.34961 8.96875 8.08594 8.35059 7.55859 7.9873C7.03711 7.62402 6.23145 7.44238 5.1416 7.44238ZM16.3564 9.19141C17.1768 9.19141 17.8799 9.37305 18.4658 9.73633C19.0518 10.0996 19.5 10.6094 19.8105 11.2656C20.1211 11.916 20.2764 12.6777 20.2764 13.5508V14.4561H13.623C13.6406 15.5869 13.9219 16.4482 14.4668 17.04C15.0117 17.6318 15.7793 17.9277 16.7695 17.9277C17.3789 17.9277 17.918 17.8721 18.3867 17.7607C18.8555 17.6494 19.3418 17.4854 19.8457 17.2686V18.5518C19.3594 18.7686 18.876 18.9268 18.3955 19.0264C17.9209 19.126 17.3584 19.1758 16.708 19.1758C15.7822 19.1758 14.9736 18.9883 14.2822 18.6133C13.5967 18.2324 13.0635 17.6758 12.6826 16.9434C12.3018 16.2109 12.1113 15.3145 12.1113 14.2539C12.1113 13.2168 12.2842 12.3203 12.6299 11.5645C12.9814 10.8027 13.4736 10.2168 14.1064 9.80664C14.7451 9.39648 15.4951 9.19141 16.3564 9.19141ZM16.3389 10.3867C15.5596 10.3867 14.9385 10.6416 14.4756 11.1514C14.0127 11.6611 13.7373 12.373 13.6494 13.2871H18.7471C18.7412 12.7129 18.6504 12.209 18.4746 11.7754C18.3047 11.3359 18.0439 10.9961 17.6924 10.7559C17.3408 10.5098 16.8896 10.3867 16.3389 10.3867ZM27.3164 9.19141C28.459 9.19141 29.3232 9.47266 29.9092 10.0352C30.4951 10.5918 30.7881 11.4883 30.7881 12.7246V19H29.3467V12.8213C29.3467 12.0186 29.1621 11.418 28.793 11.0195C28.4297 10.6211 27.8701 10.4219 27.1143 10.4219C26.0479 10.4219 25.2979 10.7236 24.8643 11.3271C24.4307 11.9307 24.2139 12.8066 24.2139 13.9551V19H22.7549V9.36719H23.9326L24.1523 10.7559H24.2314C24.4365 10.416 24.6973 10.1318 25.0137 9.90332C25.3301 9.66895 25.6846 9.49316 26.0771 9.37598C26.4697 9.25293 26.8828 9.19141 27.3164 9.19141ZM36.9053 17.9805C37.1455 17.9805 37.3916 17.96 37.6436 17.9189C37.8955 17.8779 38.1006 17.8281 38.2588 17.7695V18.9033C38.0889 18.9795 37.8516 19.0439 37.5469 19.0967C37.248 19.1494 36.9551 19.1758 36.668 19.1758C36.1582 19.1758 35.6953 19.0879 35.2793 18.9121C34.8633 18.7305 34.5293 18.4258 34.2773 17.998C34.0312 17.5703 33.9082 16.9785 33.9082 16.2227V10.5098H32.5371V9.79785L33.917 9.22656L34.4971 7.13477H35.376V9.36719H38.1973V10.5098H35.376V16.1787C35.376 16.7822 35.5137 17.2334 35.7891 17.5322C36.0703 17.8311 36.4424 17.9805 36.9053 17.9805Z" fill="white"/>
<path d="M43.8135 9.20898C44.9619 9.20898 45.8145 9.4668 46.3711 9.98242C46.9277 10.498 47.2061 11.3213 47.2061 12.4521V19H46.1426L45.8613 17.5762H45.791C45.5215 17.9277 45.2402 18.2236 44.9473 18.4639C44.6543 18.6982 44.3145 18.877 43.9277 19C43.5469 19.1172 43.0781 19.1758 42.5215 19.1758C41.9355 19.1758 41.4141 19.0732 40.957 18.8682C40.5059 18.6631 40.1484 18.3525 39.8848 17.9365C39.627 17.5205 39.498 16.9932 39.498 16.3545C39.498 15.3936 39.8789 14.6553 40.6406 14.1396C41.4023 13.624 42.5625 13.3428 44.1211 13.2959L45.7822 13.2256V12.6367C45.7822 11.8047 45.6035 11.2217 45.2461 10.8877C44.8887 10.5537 44.3848 10.3867 43.7344 10.3867C43.2305 10.3867 42.75 10.46 42.293 10.6064C41.8359 10.7529 41.4023 10.9258 40.9922 11.125L40.5439 10.0176C40.9775 9.79492 41.4756 9.60449 42.0381 9.44629C42.6006 9.28809 43.1924 9.20898 43.8135 9.20898ZM45.7646 14.2539L44.2969 14.3154C43.0957 14.3623 42.249 14.5586 41.7568 14.9043C41.2646 15.25 41.0186 15.7393 41.0186 16.3721C41.0186 16.9229 41.1855 17.3301 41.5195 17.5938C41.8535 17.8574 42.2959 17.9893 42.8467 17.9893C43.7021 17.9893 44.4023 17.752 44.9473 17.2773C45.4922 16.8027 45.7646 16.0908 45.7646 15.1416V14.2539ZM54.5889 9.19141C54.7822 9.19141 54.9844 9.20312 55.1953 9.22656C55.4062 9.24414 55.5938 9.27051 55.7578 9.30566L55.5732 10.6592C55.415 10.6182 55.2393 10.5859 55.0459 10.5625C54.8525 10.5391 54.6709 10.5273 54.501 10.5273C54.1143 10.5273 53.748 10.6064 53.4023 10.7646C53.0625 10.917 52.7637 11.1396 52.5059 11.4326C52.248 11.7197 52.0459 12.0684 51.8994 12.4785C51.7529 12.8828 51.6797 13.334 51.6797 13.832V19H50.2119V9.36719H51.4248L51.583 11.1426H51.6445C51.8438 10.7852 52.084 10.46 52.3652 10.167C52.6465 9.86816 52.9717 9.63086 53.3408 9.45508C53.7158 9.2793 54.1318 9.19141 54.5889 9.19141Z" fill="#C92F4D"/>
<path d="M70.0541 5.5C65.6723 5.5 62.1078 9.09127 62.1078 13.5C62.1078 17.9087 65.6718 21.5 70.0541 21.5C74.4364 21.5 78 17.911 78 13.5C78 9.08902 74.4355 5.5 70.0541 5.5ZM70.0541 20.7817C66.0655 20.7817 62.8212 17.515 62.8212 13.5C62.8212 9.48496 66.0655 6.21825 70.0541 6.21825C74.0427 6.21825 77.2866 9.48496 77.2866 13.5C77.2866 17.515 74.0422 20.7817 70.0541 20.7817ZM76.1121 13.5C76.1131 12.5717 75.9025 11.6556 75.4963 10.8223C75.4875 10.7993 75.4765 10.7774 75.4633 10.7567C75.1696 10.1711 74.7844 9.6368 74.3222 9.17432C74.3034 9.15043 74.2817 9.12901 74.2576 9.11057C73.1305 8.01327 71.6238 7.40025 70.0559 7.40113C69.7658 7.40118 69.4762 7.42204 69.1891 7.46353L69.1699 7.46622C68.5094 7.56375 67.8697 7.77145 67.2771 8.08078C67.2557 8.08956 67.2353 8.10039 67.216 8.1131C66.3992 8.55045 65.6925 9.16984 65.1497 9.92402C64.6069 10.6782 64.2424 11.5472 64.084 12.4648C64.0812 12.477 64.0791 12.4892 64.0777 12.5016C63.9689 13.1626 63.9689 13.837 64.0777 14.4979C64.0791 14.5105 64.0812 14.5229 64.084 14.5352C64.2424 15.4527 64.6068 16.3216 65.1494 17.0758C65.692 17.8299 66.3985 18.4494 67.2151 18.8869C67.2345 18.9001 67.2553 18.9112 67.2771 18.9201C67.8673 19.2278 68.504 19.435 69.1614 19.5333H69.1757C70.0909 19.6683 71.0246 19.5903 71.9052 19.3054C72.7857 19.0204 73.5897 18.536 74.2554 17.8894C74.2799 17.871 74.3019 17.8494 74.3209 17.8252C74.7834 17.3631 75.1691 16.8291 75.4633 16.2437C75.4765 16.2228 75.4875 16.2005 75.4963 16.1773C75.9025 15.3441 76.1132 14.4281 76.1121 13.5ZM73.9994 17.1258L70.764 14.7592C70.7165 14.7245 70.6612 14.7021 70.603 14.6941C70.8052 14.5997 70.9802 14.4549 71.1114 14.2735C71.2425 14.092 71.3255 13.8799 71.3526 13.6571C71.378 13.7104 71.4159 13.7567 71.4631 13.7918L74.6999 16.1589C74.5027 16.5063 74.2678 16.8306 73.9994 17.1258ZM67.846 18.4007L69.0829 14.5689C69.1008 14.5121 69.1047 14.4519 69.0941 14.3933C69.2456 14.5592 69.437 14.6829 69.6498 14.7526C69.8627 14.8222 70.0897 14.8355 70.3092 14.7911C70.267 14.832 70.2354 14.8827 70.2173 14.9388L68.9808 18.7715C68.5904 18.691 68.2102 18.5667 67.8474 18.4007H67.846ZM64.7091 13.5C64.7092 13.2999 64.7204 13.1 64.7426 12.9012H68.7449C68.8035 12.901 68.861 12.8864 68.9126 12.8585C68.8036 13.0546 68.7463 13.2755 68.7463 13.5002C68.7463 13.7249 68.8036 13.9459 68.9126 14.1419C68.861 14.1132 68.8031 14.0977 68.7441 14.097H64.7426C64.7204 13.8988 64.7093 13.6995 64.7091 13.5ZM68.979 8.22847L70.2155 12.0635C70.233 12.1189 70.2636 12.1691 70.3047 12.2098C70.086 12.1665 69.8599 12.1803 69.6479 12.25C69.436 12.3196 69.2453 12.4427 69.0941 12.6076C69.1047 12.5495 69.1008 12.4896 69.0829 12.4334L67.846 8.60151C68.2086 8.43487 68.5887 8.30974 68.979 8.22847ZM73.9994 9.87417C74.2679 10.1698 74.5028 10.4945 74.6999 10.8425L71.4631 13.2096C71.4159 13.2447 71.378 13.2909 71.3526 13.3442C71.3257 13.1216 71.243 12.9095 71.1122 12.728C70.9813 12.5465 70.8067 12.4015 70.6048 12.3068C70.6625 12.2988 70.7173 12.2766 70.7644 12.2422L73.9994 9.87417ZM70.0545 14.0979C69.937 14.0979 69.822 14.0628 69.7243 13.9971C69.6265 13.9313 69.5503 13.8378 69.5054 13.7284C69.4604 13.6191 69.4486 13.4987 69.4716 13.3826C69.4946 13.2666 69.5512 13.1599 69.6344 13.0763C69.7176 12.9926 69.8235 12.9356 69.9389 12.9126C70.0542 12.8896 70.1737 12.9015 70.2823 12.9468C70.3909 12.9922 70.4837 13.069 70.549 13.1674C70.6142 13.2659 70.649 13.3816 70.6489 13.5C70.6486 13.6586 70.5858 13.8105 70.4744 13.9226C70.363 14.0346 70.212 14.0977 70.0545 14.0979ZM72.28 13.5L75.0152 11.4992C75.5265 12.7834 75.5265 14.2166 75.0152 15.5008L72.28 13.5ZM73.475 9.37004L70.7417 11.3695L69.6974 8.13195C69.8163 8.12387 69.9352 8.11983 70.0541 8.11983C71.3049 8.11881 72.5161 8.56145 73.475 9.37004ZM67.2088 8.94717L68.2536 12.1834H64.8714C65.2102 10.8428 66.047 9.6843 67.2093 8.94672L67.2088 8.94717ZM64.8714 14.8171H68.254L67.2093 18.0533C66.047 17.3159 65.2101 16.1575 64.8714 14.8171ZM69.6974 18.8685L70.7417 15.631L73.475 17.63C72.516 18.4386 71.3046 18.8813 70.0537 18.8802C69.9342 18.8805 69.8154 18.8766 69.6974 18.8685ZM74.4948 9.0172C74.4289 8.9488 74.3927 8.85686 74.3942 8.7616C74.3957 8.66634 74.4347 8.57557 74.5026 8.50926C74.5705 8.44294 74.6619 8.40652 74.7565 8.40799C74.8511 8.40946 74.9413 8.44872 75.0071 8.51711C75.4395 8.95208 75.8135 9.4421 76.1196 9.97472C76.1431 10.0156 76.1583 10.0607 76.1644 10.1074C76.1705 10.1542 76.1674 10.2017 76.1553 10.2473C76.1432 10.2929 76.1222 10.3356 76.0937 10.373C76.0652 10.4104 76.0296 10.4418 75.989 10.4654C75.9484 10.489 75.9036 10.5043 75.8572 10.5104C75.8107 10.5166 75.7635 10.5135 75.7183 10.5013C75.673 10.489 75.6306 10.468 75.5934 10.4392C75.5562 10.4105 75.5251 10.3747 75.5016 10.3338C75.2263 9.85486 74.8898 9.41432 74.5006 9.02348L74.4948 9.0172ZM66.424 7.88505C66.3766 7.80297 66.3634 7.70531 66.3873 7.61344C66.4112 7.52157 66.4703 7.44297 66.5516 7.39484C68.1619 6.46512 70.0713 6.21189 71.8658 6.69006C71.9566 6.71514 72.0338 6.77535 72.0807 6.85754C72.1276 6.93974 72.1403 7.03727 72.1161 7.12886C72.0918 7.22045 72.0326 7.29867 71.9513 7.34648C71.87 7.39429 71.7732 7.4078 71.6821 7.38407C70.071 6.95485 68.3569 7.18193 66.911 8.01613C66.8291 8.06385 66.7318 8.07689 66.6404 8.0524C66.549 8.0279 66.471 7.96787 66.4236 7.8855L66.424 7.88505ZM58.282 9.66991C58.282 9.57467 58.3195 9.48332 58.3864 9.41597C58.4533 9.34862 58.5441 9.31078 58.6387 9.31078H62.4645C62.5591 9.31078 62.6498 9.34862 62.7167 9.41597C62.7836 9.48332 62.8212 9.57467 62.8212 9.66991C62.8212 9.76516 62.7836 9.8565 62.7167 9.92385C62.6498 9.9912 62.5591 10.029 62.4645 10.029H58.6387C58.5441 10.029 58.4533 9.9912 58.3864 9.92385C58.3195 9.8565 58.282 9.76516 58.282 9.66991ZM62.8212 17.3229C62.8212 17.4182 62.7836 17.5095 62.7167 17.5768C62.6498 17.6442 62.5591 17.682 62.4645 17.682H58.6387C58.5441 17.682 58.4533 17.6442 58.3864 17.5768C58.3195 17.5095 58.282 17.4182 58.282 17.3229C58.282 17.2277 58.3195 17.1363 58.3864 17.069C58.4533 17.0016 58.5441 16.9638 58.6387 16.9638H62.4645C62.5113 16.9638 62.5577 16.9731 62.601 16.9911C62.6443 17.0092 62.6836 17.0356 62.7167 17.069C62.7498 17.1023 62.7761 17.1419 62.794 17.1855C62.812 17.229 62.8212 17.2757 62.8212 17.3229ZM61.1825 13.8591H57.3567C57.2621 13.8591 57.1714 13.8213 57.1045 13.7539C57.0376 13.6866 57 13.5952 57 13.5C57 13.4048 57.0376 13.3134 57.1045 13.2461C57.1714 13.1787 57.2621 13.1409 57.3567 13.1409H61.1825C61.2771 13.1409 61.3679 13.1787 61.4348 13.2461C61.5017 13.3134 61.5392 13.4048 61.5392 13.5C61.5392 13.5952 61.5017 13.6866 61.4348 13.7539C61.3679 13.8213 61.2771 13.8591 61.1825 13.8591Z" fill="#C92F4D"/>
</svg>
