<svg width="21" height="17" viewBox="0 0 21 17" fill="none" xmlns="http://www.w3.org/2000/svg">
<path d="M13.0541 0.5C8.67227 0.5 5.10776 4.09127 5.10776 8.5C5.10776 12.9087 8.67182 16.5 13.0541 16.5C17.4364 16.5 21 12.911 21 8.5C21 4.08902 17.4355 0.5 13.0541 0.5ZM13.0541 15.7817C9.06555 15.7817 5.8212 12.515 5.8212 8.5C5.8212 4.48496 9.06555 1.21825 13.0541 1.21825C17.0427 1.21825 20.2866 4.48496 20.2866 8.5C20.2866 12.515 17.0422 15.7817 13.0541 15.7817ZM19.1121 8.5C19.1131 7.57173 18.9025 6.65561 18.4963 5.82226C18.4875 5.79934 18.4765 5.77737 18.4633 5.75672C18.1696 5.17109 17.7844 4.6368 17.3222 4.17432C17.3034 4.15043 17.2817 4.12901 17.2576 4.11057C16.1305 3.01327 14.6238 2.40025 13.0559 2.40113C12.7658 2.40118 12.4762 2.42204 12.1891 2.46353L12.1699 2.46622C11.5094 2.56375 10.8697 2.77145 10.2771 3.08078C10.2557 3.08956 10.2353 3.10039 10.216 3.1131C9.39921 3.55045 8.69248 4.16984 8.14969 4.92402C7.6069 5.6782 7.24239 6.54723 7.08398 7.46482C7.08121 7.47696 7.07913 7.48925 7.07773 7.50163C6.96894 8.16255 6.96894 8.837 7.07773 9.49792C7.07913 9.51045 7.08121 9.52289 7.08398 9.53518C7.24236 10.4527 7.60675 11.3216 8.14938 12.0758C8.692 12.8299 9.39853 13.4494 10.2151 13.8869C10.2345 13.9001 10.2553 13.9112 10.2771 13.9201C10.8673 14.2278 11.504 14.435 12.1614 14.5333H12.1757C13.0909 14.6683 14.0246 14.5903 14.9052 14.3054C15.7857 14.0204 16.5897 13.536 17.2554 12.8894C17.2799 12.871 17.3019 12.8494 17.3209 12.8252C17.7834 12.3631 18.1691 11.8291 18.4633 11.2437C18.4765 11.2228 18.4875 11.2005 18.4963 11.1773C18.9025 10.3441 19.1132 9.42813 19.1121 8.5ZM16.9994 12.1258L13.764 9.75919C13.7165 9.72449 13.6612 9.70213 13.603 9.6941C13.8052 9.5997 13.9802 9.45492 14.1114 9.27347C14.2425 9.09201 14.3255 8.87988 14.3526 8.65712C14.378 8.71042 14.4159 8.75666 14.4631 8.79179L17.6999 11.1589C17.5027 11.5063 17.2678 11.8306 16.9994 12.1258ZM10.846 13.4007L12.0829 9.56885C12.1008 9.51214 12.1047 9.45187 12.0941 9.39333C12.2456 9.55917 12.437 9.68289 12.6498 9.75256C12.8627 9.82223 13.0897 9.83549 13.3092 9.79106C13.267 9.83195 13.2354 9.88268 13.2173 9.93875L11.9808 13.7715C11.5904 13.691 11.2102 13.5667 10.8474 13.4007H10.846ZM7.70913 8.5C7.70921 8.29991 7.72038 8.09999 7.74257 7.90116H11.7449C11.8035 7.901 11.861 7.88635 11.9126 7.85851C11.8036 8.05457 11.7463 8.27552 11.7463 8.50023C11.7463 8.72493 11.8036 8.94588 11.9126 9.14194C11.861 9.11317 11.8031 9.09775 11.7441 9.09705H7.74257C7.72044 8.89881 7.70928 8.69949 7.70913 8.5ZM11.979 3.22847L13.2155 7.06349C13.233 7.11886 13.2636 7.1691 13.3047 7.20984C13.086 7.16653 12.8599 7.18035 12.6479 7.24997C12.436 7.31959 12.2453 7.44271 12.0941 7.60757C12.1047 7.54947 12.1008 7.48965 12.0829 7.43339L10.846 3.60151C11.2086 3.43487 11.5887 3.30974 11.979 3.22847ZM16.9994 4.87417C17.2679 5.16978 17.5028 5.49454 17.6999 5.84246L14.4631 8.20956C14.4159 8.24469 14.378 8.29093 14.3526 8.34423C14.3257 8.12159 14.243 7.9095 14.1122 7.72799C13.9813 7.54647 13.8067 7.40152 13.6048 7.3068C13.6625 7.29882 13.7173 7.27661 13.7644 7.24216L16.9994 4.87417ZM13.0545 9.09795C12.937 9.09795 12.822 9.06284 12.7243 8.99707C12.6265 8.93129 12.5503 8.83781 12.5054 8.72844C12.4604 8.61907 12.4486 8.49873 12.4716 8.38265C12.4946 8.26656 12.5512 8.15993 12.6344 8.07626C12.7176 7.99259 12.8235 7.93564 12.9389 7.9126C13.0542 7.88956 13.1737 7.90147 13.2823 7.94683C13.3909 7.99219 13.4837 8.06896 13.549 8.16743C13.6142 8.26589 13.649 8.38163 13.6489 8.5C13.6486 8.65855 13.5858 8.8105 13.4744 8.92258C13.363 9.03465 13.212 9.09771 13.0545 9.09795ZM15.28 8.5L18.0152 6.49921C18.5265 7.78341 18.5265 9.21659 18.0152 10.5008L15.28 8.5ZM16.475 4.37004L13.7417 6.36948L12.6974 3.13195C12.8163 3.12387 12.9352 3.11983 13.0541 3.11983C14.3049 3.11881 15.5161 3.56145 16.475 4.37004ZM10.2088 3.94717L11.2536 7.18335H7.87143C8.21015 5.84283 9.04697 4.6843 10.2093 3.94672L10.2088 3.94717ZM7.87143 9.8171H11.254L10.2093 13.0533C9.04696 12.3159 8.21013 11.1575 7.87143 9.8171ZM12.6974 13.8685L13.7417 10.631L16.475 12.63C15.516 13.4386 14.3046 13.8813 13.0537 13.8802C12.9342 13.8805 12.8154 13.8766 12.6974 13.8685ZM17.4948 4.0172C17.4289 3.9488 17.3927 3.85686 17.3942 3.7616C17.3957 3.66634 17.4347 3.57557 17.5026 3.50926C17.5705 3.44294 17.6619 3.40652 17.7565 3.40799C17.8511 3.40946 17.9413 3.44872 18.0071 3.51711C18.4395 3.95208 18.8135 4.4421 19.1196 4.97472C19.1431 5.01557 19.1583 5.06067 19.1644 5.10744C19.1705 5.15421 19.1674 5.20173 19.1553 5.2473C19.1432 5.29286 19.1222 5.33557 19.0937 5.37299C19.0652 5.41041 19.0296 5.4418 18.989 5.46538C18.9484 5.48897 18.9036 5.50428 18.8572 5.51044C18.8107 5.51659 18.7635 5.51347 18.7183 5.50126C18.673 5.48904 18.6306 5.46797 18.5934 5.43925C18.5562 5.41052 18.5251 5.37471 18.5016 5.33385C18.2263 4.85486 17.8898 4.41432 17.5006 4.02348L17.4948 4.0172ZM9.42405 2.88505C9.37661 2.80297 9.36339 2.70531 9.38729 2.61344C9.41119 2.52157 9.47026 2.44297 9.55157 2.39484C11.1619 1.46512 13.0713 1.21189 14.8658 1.69006C14.9566 1.71514 15.0338 1.77535 15.0807 1.85754C15.1276 1.93974 15.1403 2.03727 15.1161 2.12886C15.0918 2.22045 15.0326 2.29867 14.9513 2.34648C14.87 2.39429 14.7732 2.4078 14.6821 2.38407C13.071 1.95485 11.3569 2.18193 9.91097 3.01613C9.82913 3.06385 9.73181 3.07689 9.64042 3.0524C9.54903 3.0279 9.47104 2.96787 9.4236 2.8855L9.42405 2.88505ZM1.28196 4.66991C1.28196 4.57467 1.31954 4.48332 1.38644 4.41597C1.45333 4.34862 1.54407 4.31078 1.63867 4.31078H5.46448C5.55908 4.31078 5.64982 4.34862 5.71671 4.41597C5.78361 4.48332 5.8212 4.57467 5.8212 4.66991C5.8212 4.76516 5.78361 4.8565 5.71671 4.92385C5.64982 4.9912 5.55908 5.02904 5.46448 5.02904H1.63867C1.54407 5.02904 1.45333 4.9912 1.38644 4.92385C1.31954 4.8565 1.28196 4.76516 1.28196 4.66991ZM5.8212 12.3229C5.8212 12.4182 5.78361 12.5095 5.71671 12.5768C5.64982 12.6442 5.55908 12.682 5.46448 12.682H1.63867C1.54407 12.682 1.45333 12.6442 1.38644 12.5768C1.31954 12.5095 1.28196 12.4182 1.28196 12.3229C1.28196 12.2277 1.31954 12.1363 1.38644 12.069C1.45333 12.0016 1.54407 11.9638 1.63867 11.9638H5.46448C5.51132 11.9638 5.55771 11.9731 5.60099 11.9911C5.64427 12.0092 5.68359 12.0356 5.71671 12.069C5.74984 12.1023 5.77611 12.1419 5.79404 12.1855C5.81197 12.229 5.8212 12.2757 5.8212 12.3229ZM4.18252 8.85913H0.356718C0.262111 8.85913 0.171378 8.82129 0.10448 8.75394C0.0375827 8.68659 0 8.59525 0 8.5C0 8.40475 0.0375827 8.31341 0.10448 8.24606C0.171378 8.17871 0.262111 8.14087 0.356718 8.14087H4.18252C4.27713 8.14087 4.36786 8.17871 4.43476 8.24606C4.50166 8.31341 4.53924 8.40475 4.53924 8.5C4.53924 8.59525 4.50166 8.68659 4.43476 8.75394C4.36786 8.82129 4.27713 8.85913 4.18252 8.85913Z" fill="#C92F4D"/>
</svg>
